<?xml version="1.0" encoding="utf-8"?>
<!-- Svg Vector Icons : http://www.onlinewebfonts.com/icon -->
<!DOCTYPE svg PUBLIC "-//W3C//DTD SVG 1.1//EN" "http://www.w3.org/Graphics/SVG/1.1/DTD/svg11.dtd">
<svg version="1.1" xmlns="http://www.w3.org/2000/svg" xmlns:xlink="http://www.w3.org/1999/xlink" x="0px" y="0px" viewBox="0 0 1000 1000" enable-background="new 0 0 1000 1000" xml:space="preserve">
<metadata> Svg Vector Icons : http://www.onlinewebfonts.com/icon </metadata>
<g><path d="M988.1,466.8L977,433.6c-6.2-18.3-25.8-33.1-43.9-33.1h-40.5c-30.4-86.7-67.6-191.3-78.4-215.8c-16.8-38.2-70.6-55.3-100.1-63.7c0,0-49.4-19.1-214-19.1c-164.6,0-214,19.1-214,19.1c-34.6,11.8-82.8,28.4-101.8,65.4c-9,17.4-46.8,125-77.6,214.1H66.9c-18,0-37.7,14.8-43.9,33.1l-11.2,33.2C5.7,485.2,15.3,500,33.3,500h39.3c-5.1,15-8.1,24-8.1,24c-3.2,5.4-5.4,30.2-5.4,36.8v302.2c0,19.4,15.4,35.2,34.6,35.2h126.7c19.1,0,34.6-15.8,34.6-35.2v-64.3H745v64.3c0,19.4,15.5,35.2,34.6,35.2h126.8c19.1,0,34.5-15.8,34.5-35.2V560.8c0-6.6-2.2-31.5-5.4-36.8c0,0-3.1-9-8.3-24h39.4C984.8,500,994.3,485.2,988.1,466.8z M254.2,651.9h-52.4c-46.9,0-93.8-6.5-93.8-36.7v-36.7c0-35.4,20.3-36.7,42-36.7c21.4,0,63.6,18.3,91.4,31c30.2,13.8,64,25.3,64,48.1C305.5,642.2,293.8,651.9,254.2,651.9z M181.2,413.8C207,305,235,243.6,241.2,226.4c5-12.4,9.8-50.9,258.8-50.9c249,0,255,43.9,255.5,44.4c7.7,23.3,38.1,93.5,62.5,193.8c0,0-105.1,36.4-318,36.4C287,450.2,181.2,413.8,181.2,413.8z M694.4,620.9c0-22.9,34-34.3,64.1-48.1c27.8-12.6,70-31,91.3-31c21.8,0,42.1,1.3,42.1,36.7v36.7c0,30.3-46.9,36.7-93.8,36.7h-52.5C706.2,651.9,694.4,642.2,694.4,620.9z"/></g>
</svg>