<?xml version="1.0" encoding="UTF-8" standalone="no"?>
<svg
   xmlns:dc="http://purl.org/dc/elements/1.1/"
   xmlns:cc="http://creativecommons.org/ns#"
   xmlns:rdf="http://www.w3.org/1999/02/22-rdf-syntax-ns#"
   xmlns:svg="http://www.w3.org/2000/svg"
   xmlns="http://www.w3.org/2000/svg"
   xmlns:sodipodi="http://sodipodi.sourceforge.net/DTD/sodipodi-0.dtd"
   xmlns:inkscape="http://www.inkscape.org/namespaces/inkscape"
   width="903.39996"
   height="903.39996"
   viewBox="-50 -30 90.339994 90.339996"
   id="svg2"
   version="1.1"
   inkscape:version="0.91 r13725"
   sodipodi:docname="UK_traffic_sign_610_straight_on_only.svg">
  <metadata
     id="metadata14">
    <rdf:RDF>
      <cc:Work
         rdf:about="">
        <dc:format>image/svg+xml</dc:format>
        <dc:type
           rdf:resource="http://purl.org/dc/dcmitype/StillImage" />
        <dc:title></dc:title>
      </cc:Work>
    </rdf:RDF>
  </metadata>
  <defs
     id="defs12" />
  <sodipodi:namedview
     pagecolor="#ffffff"
     bordercolor="#666666"
     borderopacity="1"
     objecttolerance="10"
     gridtolerance="10"
     guidetolerance="10"
     inkscape:pageopacity="0"
     inkscape:pageshadow="2"
     inkscape:window-width="3072"
     inkscape:window-height="1665"
     id="namedview10"
     showgrid="false"
     fit-margin-top="1.7"
     fit-margin-left="1.7"
     fit-margin-right="1.7"
     fit-margin-bottom="1.7"
     inkscape:zoom="0.70710678"
     inkscape:cx="162.80219"
     inkscape:cy="241.16921"
     inkscape:window-x="-8"
     inkscape:window-y="-8"
     inkscape:window-maximized="1"
     inkscape:current-layer="svg2"
     showguides="true"
     inkscape:guide-bbox="true" />
  <path
     inkscape:connector-curvature="0"
     id="path3124"
     d="m 26.989799,-16.649804 c 17.573599,17.57359895 17.573614,46.066009 1.3e-5,63.63961 -17.5735953,17.573594 -46.066023,17.573599 -63.639623,-1e-6 -17.573588,-17.573587 -17.57358,-46.06601405 1.4e-5,-63.639608 17.5736,-17.573601 46.0660077,-17.573589 63.639596,-1e-6 z"
     style="fill:#ffffff;fill-opacity:1;stroke:#0079c1;stroke-width:0.30000001;stroke-miterlimit:4;stroke-dasharray:none;stroke-opacity:1"
     sodipodi:nodetypes="sssss" />
  <path
     sodipodi:nodetypes="sssss"
     style="fill:#0079c1;fill-opacity:1;stroke:none"
     d="m -35.338836,45.678829 c 16.849566,16.849566 44.1680928,16.84958 61.017659,1.3e-5 16.849565,-16.849565 16.849567,-44.168107 10e-7,-61.017673 -16.8495582,-16.849558 -44.168094,-16.849549 -61.017659,1.6e-5 -16.849566,16.849566 -16.849558,44.168086 -10e-7,61.017644 z"
     id="path3607"
     inkscape:connector-curvature="0" />
  <path
     sodipodi:nodetypes="ccccc"
     inkscape:connector-curvature="0"
     id="path3768"
     d="m 1.1100038,52.45697 10e-7,-61.019971 -11.8799938,-2.6e-5 -6e-6,61.020033 z"
     style="fill:#ffffff;fill-opacity:1;stroke:none" />
  <path
     style="fill:#ffffff;fill-opacity:1;stroke:none"
     d="M -22.83,-4.117018 -4.8299991,-22.117014 13.169965,-4.117047 13.170029,13.702954 -4.8300001,-4.297014 -22.83,13.702991 Z"
     id="path3770"
     inkscape:connector-curvature="0"
     sodipodi:nodetypes="ccccccc" />
</svg>
